<svg xmlns="http://www.w3.org/2000/svg" viewBox="0 0 96 96" style="stroke-linecap:round;stroke-linejoin:round"><path transform="translate(3 3)" d="M10 29C10 16 23 9 38 9C54 9 66 16 66 29C66 42 54 49 38 49C33 49 28 48 24 46L11 57L15 43C12 39 10 34 10 29Z" style="fill:var(--art-pop,#F2B124);stroke:var(--art-pop,#F2B124);stroke-width:5"/><path d="M10 29C10 16 23 9 38 9C54 9 66 16 66 29C66 42 54 49 38 49C33 49 28 48 24 46L11 57L15 43C12 39 10 34 10 29Z" style="fill:var(--art-paper,#FBF3E4);stroke:var(--art-ink,#1D1A14);stroke-width:5"/><path d="M26 29h0" style="fill:none;stroke:var(--art-ink,#1D1A14);stroke-width:7"/><path d="M38 29h0" style="fill:none;stroke:var(--art-ink,#1D1A14);stroke-width:7"/><path d="M50 29h0" style="fill:none;stroke:var(--art-ink,#1D1A14);stroke-width:7"/><path transform="translate(3 3)" d="M63 45C69 35 83 35 86 47C88 61 77 76 57 84C47 88 36 90 30 86C28 84 30 81.5 34 81.5C48 77 58 70 61.5 58C62.5 52 61 48 63 45Z" style="fill:var(--art-pop,#F2B124);stroke:var(--art-pop,#F2B124);stroke-width:5"/><path d="M63 45C69 35 83 35 86 47C88 61 77 76 57 84C47 88 36 90 30 86C28 84 30 81.5 34 81.5C48 77 58 70 61.5 58C62.5 52 61 48 63 45Z" style="fill:var(--art-pop,#F2B124);stroke:var(--art-ink,#1D1A14);stroke-width:5"/><path d="M67 49C68 58 64 66 56 72" style="fill:none;stroke:var(--art-paper,#FBF3E4);stroke-width:4"/><path d="M62 45C66 37 78 35 85 42C80 41 77 43 75 46C71 43 66 44 62 45Z" style="fill:var(--art-ink,#1D1A14);stroke:var(--art-ink,#1D1A14);stroke-width:3.5"/><path d="M75 40C75 32 78 26 84 22" style="fill:none;stroke:var(--art-ink,#1D1A14);stroke-width:5"/></svg>
