<svg xmlns="http://www.w3.org/2000/svg" viewBox="0 0 100 100" width="100" height="100">
  <rect width="100" height="100" rx="22" fill="#0F3550"/>
  <circle cx="50" cy="56" r="36" fill="none" stroke="#A0D6EC" stroke-opacity="0.25" stroke-width="2"/>
  <!-- Tảng băng: thành băng, mép sắp vỡ màu cam, mặt băng trắng -->
  <path d="M20 58 C18 40 34 26 52 27 C70 28 83 40 81 57 C79 73 65 82 49 81 C33 80 22 72 20 58 Z" fill="#7FB6CE" transform="translate(0 5)"/>
  <path d="M20 58 C18 40 34 26 52 27 C70 28 83 40 81 57 C79 73 65 82 49 81 C33 80 22 72 20 58 Z" fill="#FF6A2B"/>
  <path d="M26 57 C25 43 37 33 51 33 C66 34 76 43 75 56 C74 69 63 76 49 75 C36 74 27 68 26 57 Z" fill="#F2FAFD"/>
  <!-- Cầu tuyết -->
  <circle cx="64" cy="49" r="10" fill="#FFFFFF" stroke="#B9DDEB" stroke-width="2"/>
  <!-- Cánh cụt nhìn từ trên: xe trượt đỏ, thân đen, bụng trắng, mỏ vàng -->
  <rect x="31" y="47" width="21" height="18" rx="8" fill="#FF4757"/>
  <ellipse cx="42" cy="56" rx="9" ry="8" fill="#13202E"/>
  <ellipse cx="45" cy="56" rx="5" ry="5.5" fill="#FFFFFF"/>
  <path d="M49.5 54.5 L53 56 L49.5 57.5 Z" fill="#FFB000"/>
  <circle cx="39" cy="56" r="4" fill="#FF4757"/>
  <circle cx="39" cy="56" r="1.5" fill="#FFFFFF"/>
</svg>
